
Gipsy Kings
Greatest Hits (1998)


The Gipsy Kings are largely responsible for bringing the joyful sounds of progressive pop-oriented flamenco to the world. The band started out in Arles, a village in southern France, during the '70s when brothers Nicolas and Andre Reyes, the sons of renowned flamenco artist Jose Reyes, teamed up with their cousins Jacques, Maurice, and Tonino Baliardo, whose father is Manitas de Plata. They originally called themselves Los Reyes and started out as a Gypsy band traveling about playing weddings, festivals, and in the streets. Because they lived so much like Gypsies, the band adopted the name the Gipsy Kings. Later, they were hired to add color to posh parties in St. Tropez. Popularity did not come to Los Reyes right away, and their first two albums attracted little notice. At this point the Gipsies played traditional -- albeit passionate -- flamenco music punctuated by Tonino's precise guitar playing and Nicolas' exceptional voice. Though they had devoted fans, they still had yet to gain wider recognition until 1986 when they hooked up with visionary producer Claude Martinez, who could see that the Kings had the makings of a world-class band. 


Channels:		2 (stereo)
Sample Rate:		44.1 KHz
Sample Size:		16 bit

Audio Quality:		Perfect (Lossless)
Grabber:		Exact Audio Copy V1.0 beta 1
Encoder:		Flac 1.2.1
Encoder Settings:	High	
Contains:		Album Art, CRC, ID Tag [Vorbis Comments]
Cue File:		Yes
M3U File:		Yes
Log file:		Included In Torrent Description
		

Format:			Flac
Genre:			Latin		
Source:			Retail CD
Label:			Sony


Track List:

01.Djobi Djoba
02.Baila Me
03.Bamboleo
04.Pida Me La
05.Bem, Bem, Maria
06.Volare
07.Moorea
08.A Mi Manera (Comme D'habitude)
09.Un Amor
10.Galaxia
11.Eschucha Me
12.Tu Quieres Volver
13.Soy
14.La Quiero
15.Allegria
16.Vamos A Bailar
17.La Dona
18.Medley:Bamboleo/Volare Djobi Djoba/Pida Me La/Baila Me



Note: I didn't include the log file in the torrent for technical reasons. It's included here in the torrent description. If you want it just copy and paste it into a notepad and save.


Exact Audio Copy V1.0 beta 1 from 15. November 2010

EAC extraction logfile from 1. March 2011, 6:39

Gipsy Kings / Greatest Hits

Used drive  : Optiarc DVD RW AD-7203S   Adapter: 1  ID: 0

Read mode               : Secure
Utilize accurate stream : Yes
Defeat audio cache      : No
Make use of C2 pointers : Yes

Combined read/write offset correction       : 0
Overread into Lead-In and Lead-Out          : No
Fill up missing offset samples with silence : Yes
Delete leading and trailing silent blocks   : No
Null samples used in CRC calculations       : No
Used interface                              : Native Win32 interface for Win NT & 2000
Gap handling                                : Not detected, thus appended to previous track

Used output format              : User Defined Encoder
Selected bitrate                : 1024 kBit/s
Quality                         : High
Add ID3 tag                     : No
Command line compressor         : C:\Program Files (x86)\Exact Audio Copy\Flac\flac.exe
Additional command line options : -6 -V -T "ARTIST=%a" -T "TITLE=%t" -T "ALBUM=%g" -T "DATE=%y" -T "TRACKNUMBER=%n" -T "GENRE=%m" -T "COMMENT=%e" %j--picture="%i"%j %s -o %d


TOC of the extracted CD

     Track |   Start  |  Length  | Start sector | End sector 
    ---------------------------------------------------------
        1  |  0:00.00 |  3:24.65 |         0    |    15364   
        2  |  3:24.65 |  3:44.43 |     15365    |    32207   
        3  |  7:09.33 |  3:23.60 |     32208    |    47492   
        4  | 10:33.18 |  3:13.12 |     47493    |    61979   
        5  | 13:46.30 |  3:04.10 |     61980    |    75789   
        6  | 16:50.40 |  3:39.40 |     75790    |    92254   
        7  | 20:30.05 |  3:59.40 |     92255    |   110219   
        8  | 24:29.45 |  3:51.65 |    110220    |   127609   
        9  | 28:21.35 |  3:37.33 |    127610    |   143917   
       10  | 31:58.68 |  2:35.09 |    143918    |   155551   
       11  | 34:34.02 |  4:37.21 |    155552    |   176347   
       12  | 39:11.23 |  3:13.10 |    176348    |   190832   
       13  | 42:24.33 |  3:11.09 |    190833    |   205166   
       14  | 45:35.42 |  3:43.40 |    205167    |   221931   
       15  | 49:19.07 |  2:48.05 |    221932    |   234536   
       16  | 52:07.12 |  4:54.65 |    234537    |   256651   
       17  | 57:02.02 |  4:33.18 |    256652    |   277144   
       18  | 61:35.20 |  4:46.73 |    277145    |   298667   


Track  1

     Filename J:\Gipsy Kings - Greatest Hits (1998)\01 Djobi Djoba.wav

     Peak level 84.6 %
     Extraction speed 17.5 X
     Track quality 100.0 %
     Copy CRC EF6D72B2
     Copy OK

Track  2

     Filename J:\Gipsy Kings - Greatest Hits (1998)\02 Baila Me.wav

     Peak level 78.9 %
     Extraction speed 18.7 X
     Track quality 100.0 %
     Copy CRC AC976989
     Copy OK

Track  3

     Filename J:\Gipsy Kings - Greatest Hits (1998)\03 Bamboleo.wav

     Peak level 84.2 %
     Extraction speed 22.5 X
     Track quality 100.0 %
     Copy CRC 3BA5FEED
     Copy OK

Track  4

     Filename J:\Gipsy Kings - Greatest Hits (1998)\04 Pida Me La.wav

     Peak level 84.1 %
     Extraction speed 19.4 X
     Track quality 99.8 %
     Copy CRC 289FA51A
     Copy OK

Track  5

     Filename J:\Gipsy Kings - Greatest Hits (1998)\05 Bem, Bem, Maria.wav

     Peak level 84.6 %
     Extraction speed 20.3 X
     Track quality 100.0 %
     Copy CRC 2D1D9E17
     Copy OK

Track  6

     Filename J:\Gipsy Kings - Greatest Hits (1998)\06 Volare.wav

     Peak level 88.3 %
     Extraction speed 25.1 X
     Track quality 100.0 %
     Copy CRC F1E1FCD9
     Copy OK

Track  7

     Filename J:\Gipsy Kings - Greatest Hits (1998)\07 Moorea.wav

     Peak level 78.8 %
     Extraction speed 26.8 X
     Track quality 100.0 %
     Copy CRC A22B85EA
     Copy OK

Track  8

     Filename J:\Gipsy Kings - Greatest Hits (1998)\08 A Mi Manera (Comme d'Habitude).wav

     Peak level 76.7 %
     Extraction speed 28.5 X
     Track quality 100.0 %
     Copy CRC D6055A33
     Copy OK

Track  9

     Filename J:\Gipsy Kings - Greatest Hits (1998)\09 Un Amor.wav

     Peak level 75.6 %
     Extraction speed 29.6 X
     Track quality 100.0 %
     Copy CRC 417E1068
     Copy OK

Track 10

     Filename J:\Gipsy Kings - Greatest Hits (1998)\10 Galaxia.wav

     Peak level 100.0 %
     Extraction speed 28.4 X
     Track quality 100.0 %
     Copy CRC 600A9CFE
     Copy OK

Track 11

     Filename J:\Gipsy Kings - Greatest Hits (1998)\11 Eschucha Me.wav

     Peak level 87.4 %
     Extraction speed 30.6 X
     Track quality 100.0 %
     Copy CRC 2B7419DD
     Copy OK

Track 12

     Filename J:\Gipsy Kings - Greatest Hits (1998)\12 Tu Quieres Volver.wav

     Peak level 82.3 %
     Extraction speed 31.1 X
     Track quality 100.0 %
     Copy CRC B64ED713
     Copy OK

Track 13

     Filename J:\Gipsy Kings - Greatest Hits (1998)\13 Soy.wav

     Peak level 82.1 %
     Extraction speed 31.9 X
     Track quality 100.0 %
     Copy CRC 79A8CB15
     Copy OK

Track 14

     Filename J:\Gipsy Kings - Greatest Hits (1998)\14 La Quiero.wav

     Peak level 78.0 %
     Extraction speed 33.9 X
     Track quality 100.0 %
     Copy CRC 28C1BF7F
     Copy OK

Track 15

     Filename J:\Gipsy Kings - Greatest Hits (1998)\15 Allegria.wav

     Peak level 92.6 %
     Extraction speed 35.0 X
     Track quality 100.0 %
     Copy CRC 8009B9B4
     Copy OK

Track 16

     Filename J:\Gipsy Kings - Greatest Hits (1998)\16 Vamos A Bailar.wav

     Peak level 81.5 %
     Extraction speed 30.2 X
     Track quality 99.9 %
     Copy CRC 271F2614
     Copy OK

Track 17

     Filename J:\Gipsy Kings - Greatest Hits (1998)\17 La Dona.wav

     Peak level 96.4 %
     Extraction speed 32.3 X
     Track quality 100.0 %
     Copy CRC 8CD4EA55
     Copy OK

Track 18

     Filename J:\Gipsy Kings - Greatest Hits (1998)\18 Medley,Bamboleo,Volare Djobi Djoba,Pida Me La,Baila Me.wav

     Peak level 86.6 %
     Extraction speed 37.2 X
     Track quality 100.0 %
     Copy CRC 0196A7B9
     Copy OK

No errors occurred

End of status report

==== Log checksum 66DED1511E8232586E9E5B172E5F5F791956DEB7BD16FD1249A62A741C0A61DB ====




Salud!